<!DOCTYPE svg PUBLIC "-//W3C//DTD SVG 1.1//EN" "http://www.w3.org/Graphics/SVG/1.1/DTD/svg11.dtd">
<!-- Uploaded to: SVG Repo, www.svgrepo.com, Transformed by: SVG Repo Mixer Tools -->
<svg fill="#716863" width="800px" height="800px" viewBox="0 0 256 256" id="Flat" xmlns="http://www.w3.org/2000/svg" stroke="#716863">
<g id="SVGRepo_bgCarrier" stroke-width="0"/>
<g id="SVGRepo_tracerCarrier" stroke-linecap="round" stroke-linejoin="round"/>
<g id="SVGRepo_iconCarrier"> <path d="M213.65723,181.65723l-32,32A8.00038,8.00038,0,0,1,168,208V184H48a8,8,0,0,1,0-16H168V144a8.00038,8.00038,0,0,1,13.65723-5.65723l32,32A8.00122,8.00122,0,0,1,213.65723,181.65723Zm-139.31446-64A8.00038,8.00038,0,0,0,88,112V88H208a8,8,0,0,0,0-16H88V48a8.00038,8.00038,0,0,0-13.65723-5.65723l-32,32a8.00122,8.00122,0,0,0,0,11.31446Z"/> </g>
</svg>